<svg xmlns="http://www.w3.org/2000/svg" xmlns:xlink="http://www.w3.org/1999/xlink" width="52" height="45" version="1.1" viewBox="0 0 52 45"><title>Polygon 2</title><desc>Created with Sketch.</desc><defs><polyline id="path-1" points=".554 22.518 13.286 .34 38.75 .34 51.482 22.518 38.75 44.697 13.287 44.697 .554 22.518"/><linearGradient id="linearGradient-3" x1="36.641%" x2="88.285%" y1="0%" y2="85.572%"><stop offset="0%" stop-color="#0084FF"/><stop offset="100%" stop-color="#00C7FF"/></linearGradient><path id="path-4" d="M9.68901484,25.87937 C10.0665718,25.87937 9.66792663,25.5777964 10.0350511,25.5332526 C13.0068507,25.1726797 16.2487259,23.469895 18.3399209,20.6876087 C19.9133283,18.5942269 21.2466338,15.7591851 21.2466338,13.1524621 C21.2466338,10.2324485 19.585811,6.99477477 17.6478485,4.76620715 C15.709886,2.53763953 11.808344,0.612798063 8.65090611,0.612798063 C8.21635995,0.612798063 7.34124799,0.900140405 6.92072489,0.958915487 C1.79294914,1.67560723 1.02961664e-13,7.14578055 1.02961664e-13,13.1524621 C1.02961664e-13,19.6517449 3.95569862,25.87937 9.68901484,25.87937 Z"/></defs><g id="Page-1" fill="none" fill-rule="evenodd" stroke="none" stroke-width="1"><g id="Artboard" transform="translate(-96.000000, -172.000000)"><g id="Polygon-2" transform="translate(96.000000, 172.000000)"><mask id="mask-2" fill="#fff"><use xlink:href="#path-1"/></mask><use id="Mask" fill="#0070F3" fill-opacity=".9" xlink:href="#path-1"/><g id="Group-12" mask="url(#mask-2)"><g id="distribution"><g transform="translate(-4.122616, 1.725037) translate(0.273328, 0.325758)"><g id="Layer_1" fill="#FFF" transform="translate(8.304870, 0.000000)"><path id="Shape" d="M32.896744,15.643912 C32.5810617,15.3302292 32.0697216,15.3302292 31.7541231,15.643912 C31.4385245,15.9575948 31.4384407,16.4656959 31.7541231,16.7792955 L34.9460409,19.9509953 L20.1843528,19.9509953 C20.0220306,16.0387411 18.6802341,12.4255218 16.5037095,9.45040421 L24.4463575,4.18887299 L23.3905094,8.39408642 C23.283216,8.82453675 23.5459635,9.26056329 23.9791577,9.3679262 C24.0446562,9.38357288 24.1109084,9.39147945 24.175653,9.39147945 C24.5378208,9.39147945 24.8669044,9.14762418 24.9592052,8.78300645 L26.7181145,1.77154317 L19.6627106,0.023025962 C19.2295164,-0.0812575384 18.791548,0.17824442 18.6826631,0.607945707 C18.5753696,1.03839604 18.838871,1.47442258 19.2713114,1.58178548 L23.7817411,2.69919193 L15.4958545,8.18818269 C11.9367435,4.08733598 6.67609709,1.48374401 0.811809793,1.48374401 L0.811809793,3.08961004 C6.11584261,3.08961004 10.8815654,5.41264361 14.1414944,9.08528712 L10.735576,11.3415726 C8.23256429,8.73698189 4.02166815,7.10423352 0.119737305,7.10423352 L0.00371661554,34.4037064 L0.811726036,34.4037064 C4.71374064,34.4037064 8.23248053,32.7710413 10.7354922,30.1663673 L14.1414106,32.4226528 C10.8814817,36.0952131 6.11575885,38.4183299 0.811726036,38.4183299 L0.811726036,40.0241959 C6.67601333,40.0241959 11.9366597,37.4206039 15.4957708,33.3197572 L23.7816574,38.808748 L19.2712277,39.9261544 C18.8387872,40.0336006 18.5752021,40.4695439 18.6825793,40.8999942 C18.7748802,41.2646119 19.1039638,41.5084672 19.4661316,41.5084672 C19.5308762,41.5084672 19.5971284,41.5006439 19.6626268,41.484914 L26.7180308,39.7363968 L24.9591215,32.7249335 C24.8502366,32.2952322 24.409923,32.034898 23.979074,32.1400137 C23.5458798,32.2474599 23.2830484,32.6834032 23.3904257,33.1138535 L24.4462738,37.3190669 L16.5036258,32.0575357 C18.6801504,29.0824182 20.0219469,25.4691988 20.1842691,21.5569446 L34.9460409,21.5569446 L31.7541231,24.7286444 C31.4385245,25.0423272 31.4385245,25.5504284 31.7541231,25.8640279 C31.9119223,26.0208277 32.1187198,26.0992276 32.3254335,26.0992276 C32.5321473,26.0992276 32.7389447,26.0208277 32.896744,25.8640279 L38.039376,20.75397 L32.896744,15.643912 Z M15.1593165,10.3410169 C17.1640543,13.0609603 18.4060118,16.3679874 18.5681665,19.9509953 L14.507515,19.9509953 C14.3448578,17.1928507 13.359031,14.6573385 11.7844722,12.5765789 L15.1593165,10.3410169 Z M15.1593165,31.1668398 L11.7844722,28.9312778 C13.3591148,26.8505182 14.3448578,24.315006 14.507515,21.5568614 L18.5681665,21.5568614 C18.4060118,25.1399526 17.1640543,28.4469796 15.1593165,31.1668398 Z"/></g><g id="stats" transform="translate(0.207613, 7.614583)"><mask id="mask-5" fill="#fff"><use xlink:href="#path-4"/></mask><use id="Mask" fill="#0070F3" xlink:href="#path-4"/></g><polygon id="HUB" fill="#FFF" points="15.646 15.921 15.646 25 13.863 25 13.863 21.089 10.089 21.089 10.089 25 8.305 25 8.305 15.921 10.089 15.921 10.089 19.776 13.863 19.776 13.863 15.921"/></g></g></g></g></g></g></svg>