<svg xmlns="http://www.w3.org/2000/svg" xmlns:xlink="http://www.w3.org/1999/xlink" width="52" height="45" version="1.1" viewBox="0 0 52 45"><title>Polygon 2</title><desc>Created with Sketch.</desc><defs><polyline id="path-1" points=".554 22.518 13.286 .34 38.75 .34 51.482 22.518 38.75 44.697 13.287 44.697 .554 22.518"/></defs><g id="Page-1" fill="none" fill-rule="evenodd" stroke="none" stroke-width="1"><g id="Polygon-2"><mask id="mask-2" fill="#fff"><use xlink:href="#path-1"/></mask><use id="Mask" fill="#062381" fill-opacity=".9" xlink:href="#path-1"/><g id="Group-147" mask="url(#mask-2)"><g transform="translate(19.622642, -12.000000)"><g id="Group" fill="none" stroke-width="1" transform="translate(2.964786, 0.051160)"><g id="Group-118" fill="#FFF" transform="translate(0.000000, 19.883203)"><polygon id="Shape" points="6.573 5.319 8.653 3.299 5.778 2.884 4.494 .292 3.209 2.884 .336 3.299 2.416 5.319 1.925 8.166 4.494 6.821 7.064 8.166"/></g><g id="Group-118" fill="#FFF" transform="translate(10.423558, 19.753281)"><polygon id="Shape" points="6.573 5.319 8.653 3.299 5.778 2.884 4.494 .292 3.209 2.884 .336 3.299 2.416 5.319 1.925 8.166 4.494 6.821 7.064 8.166"/></g></g><path id="Shape" fill="#FFF" d="M52.3178745,32 L37.6688696,32 L16.7417198,32 L2.09271498,32 C0.935443596,32 7.10542736e-15,32.95011 7.10542736e-15,34.1255257 L7.10542736e-15,59.6318337 C7.10542736e-15,60.8072494 0.935443596,61.7573593 2.09271498,61.7573593 L52.3178745,61.7573593 C53.4751459,61.7573593 54.4105895,60.8072494 54.4105895,59.6318337 L54.4105895,34.1255257 C54.4105895,32.95011 53.4751459,32 52.3178745,32 Z M12.5562899,55.3807823 C12.5562899,56.556198 11.6208463,57.506308 10.4635749,57.506308 L6.27814494,57.506308 C5.12087356,57.506308 4.18542996,56.556198 4.18542996,55.3807823 L4.18542996,51.129731 C4.18542996,49.9543153 5.12087356,49.0042053 6.27814494,49.0042053 L10.4635749,49.0042053 C11.6208463,49.0042053 12.5562899,49.9543153 12.5562899,51.129731 L12.5562899,55.3807823 Z M12.5562899,42.6276283 C12.5562899,43.803044 11.6208463,44.753154 10.4635749,44.753154 L6.27814494,44.753154 C5.12087356,44.753154 4.18542996,43.803044 4.18542996,42.6276283 L4.18542996,38.376577 C4.18542996,37.2011613 5.12087356,36.2510513 6.27814494,36.2510513 L10.4635749,36.2510513 C11.6208463,36.2510513 12.5562899,37.2011613 12.5562899,38.376577 L12.5562899,42.6276283 Z M25.1125798,55.3807823 C25.1125798,56.556198 24.1771362,57.506308 23.0198648,57.506308 L18.8344348,57.506308 C17.6771634,57.506308 16.7417198,56.556198 16.7417198,55.3807823 L16.7417198,51.129731 C16.7417198,49.9543153 17.6771634,49.0042053 18.8344348,49.0042053 L23.0198648,49.0042053 C24.1771362,49.0042053 25.1125798,49.9543153 25.1125798,51.129731 L25.1125798,55.3807823 Z M25.1125798,42.6276283 C25.1125798,43.803044 24.1771362,44.753154 23.0198648,44.753154 L18.8344348,44.753154 C17.6771634,44.753154 16.7417198,43.803044 16.7417198,42.6276283 L16.7417198,38.376577 C16.7417198,37.2011613 17.6771634,36.2510513 18.8344348,36.2510513 L23.0198648,36.2510513 C24.1771362,36.2510513 25.1125798,37.2011613 25.1125798,38.376577 L25.1125798,42.6276283 Z M37.6688696,55.3807823 C37.6688696,56.556198 36.7334261,57.506308 35.5761547,57.506308 L31.3907247,57.506308 C30.2334533,57.506308 29.2980097,56.556198 29.2980097,55.3807823 L29.2980097,51.129731 C29.2980097,49.9543153 30.2334533,49.0042053 31.3907247,49.0042053 L35.5761547,49.0042053 C36.7334261,49.0042053 37.6688696,49.9543153 37.6688696,51.129731 L37.6688696,55.3807823 Z M37.6688696,42.6276283 C37.6688696,43.803044 36.7334261,44.753154 35.5761547,44.753154 L31.3907247,44.753154 C30.2334533,44.753154 29.2980097,43.803044 29.2980097,42.6276283 L29.2980097,38.376577 C29.2980097,37.2011613 30.2334533,36.2510513 31.3907247,36.2510513 L35.5761547,36.2510513 C36.7334261,36.2510513 37.6688696,37.2011613 37.6688696,38.376577 L37.6688696,42.6276283 Z M50.2251595,55.3807823 C50.2251595,56.556198 49.2897159,57.506308 48.1324446,57.506308 L43.9470146,57.506308 C42.7897432,57.506308 41.8542996,56.556198 41.8542996,55.3807823 L41.8542996,51.129731 C41.8542996,49.9543153 42.7897432,49.0042053 43.9470146,49.0042053 L48.1324446,49.0042053 C49.2897159,49.0042053 50.2251595,49.9543153 50.2251595,51.129731 L50.2251595,55.3807823 Z M50.2251595,42.6276283 C50.2251595,43.803044 49.2897159,44.753154 48.1324446,44.753154 L43.9470146,44.753154 C42.7897432,44.753154 41.8542996,43.803044 41.8542996,42.6276283 L41.8542996,38.376577 C41.8542996,37.2011613 42.7897432,36.2510513 43.9470146,36.2510513 L48.1324446,36.2510513 C49.2897159,36.2510513 50.2251595,37.2011613 50.2251595,38.376577 L50.2251595,42.6276283 Z"/></g></g></g></g></svg>