<svg xmlns="http://www.w3.org/2000/svg" xmlns:xlink="http://www.w3.org/1999/xlink" width="52" height="45" version="1.1" viewBox="0 0 52 45"><title>Polygon 2</title><desc>Created with Sketch.</desc><defs><polyline id="path-1" points=".554 22.518 13.286 .34 38.75 .34 51.482 22.518 38.75 44.697 13.287 44.697 .554 22.518"/></defs><g id="Page-1" fill="none" fill-rule="evenodd" stroke="none" stroke-width="1"><g id="Artboard" transform="translate(-33.000000, -172.000000)"><g id="Polygon-2" transform="translate(33.000000, 172.000000)"><mask id="mask-2" fill="#fff"><use xlink:href="#path-1"/></mask><use id="Mask" fill="#2BCD70" fill-opacity=".8" xlink:href="#path-1"/><g id="noun_718836_cc" mask="url(#mask-2)"><g id="Group-123"><g transform="translate(7.485203, 1.173006) translate(0.975068, 0.826994)"><g id="noun_1054968_cc" stroke="#FFF" stroke-width="1.4"><g id="Group"><path id="Shape" d="M27.79113,16.5492353 C27.892929,21.0860973 25.3479538,25.0558515 21.5813903,26.9633958 C21.0214958,27.221172 20.6651992,27.7882798 20.5634002,28.4069428 L20.0544052,32.4282523 C20.0035057,32.99536 19.4945106,33.407802 18.9346161,33.407802 L14.200962,33.407802 C13.6410675,33.407802 13.1320724,32.99536 13.0811729,32.4282523 L12.5721779,28.4069428 C12.5212784,27.7882798 12.1140823,27.221172 11.5541878,26.9633958 C7.88942336,25.1074068 5.34444808,21.240763 5.34444808,16.8070115 C5.34444808,10.3626053 10.6379967,5.20708025 17.0513344,5.51641175 C22.955677,5.82574325 27.689331,10.6719368 27.79113,16.5492353 Z M18.323822,30.6753738 L14.9135551,31.0878158 L18.323822,30.6753738 Z M18.323822,28.664719 L14.9135551,29.077161 L18.323822,28.664719 Z M15.1171531,25.158962 L15.4734497,16.6007905 C15.5752487,15.3119093 14.200962,14.2808043 13.0811729,14.8994673 C12.6230774,15.1572435 12.3176803,15.6212408 12.3176803,16.3945695 C12.3176803,18.1990033 16.9495353,19.1269978 19.6472091,19.5394398 C20.8178978,19.6941055 21.5304908,18.0443375 20.4616012,17.4256745 C20.2580032,17.322564 20.0544052,17.2194535 19.7490081,17.2194535 C18.629219,17.2194535 17.9166259,20.5705448 17.5603294,22.8389758 L15.1171531,25.158962 Z M16.4405403,3.1964255 L16.4405403,0 L16.4405403,3.1964255 Z M27.892929,8.30039526 L30.1325073,6.03196426 L27.892929,8.30039526 Z M29.7762107,18.147448 L32.8810806,18.4052243 L29.7762107,18.147448 Z M0,18.4052243 L3.10486984,18.147448 L0,18.4052243 Z M4.98815154,8.30039526 L2.7485733,6.03196426 L4.98815154,8.30039526 Z"/></g></g><g id="Group-120" transform="translate(14.271822, 21.910981)"><polygon id="Path-2" fill="#2FD475" fill-opacity=".7" points="0 4.511 0 22.273 17.123 22.273 22.056 17.762 22.056 0 6.385 0"/><g id="Group-37" fill="#FFF" transform="translate(1.741299, 1.127771)"><polygon id="Shape" points="4.82 1.036 17.354 1.036 17.354 16.088 18.555 16.088 18.555 .15 4.82 .15"/><polygon id="Shape" points="2.415 2.806 14.949 2.806 14.949 17.857 16.15 17.857 16.15 1.92 2.415 1.92"/><path id="Shape" d="M0.0108765815,19.6255049 L13.7471624,19.6255049 L13.7471624,3.68966028 L0.0108765815,3.68966028 L0.0108765815,19.6255049 Z M2.95274089,7.65546272 L10.0335628,7.65546272 L10.0335628,8.21260013 L2.95274089,8.21260013 L2.95274089,7.65546272 Z M2.95274089,10.1370213 L8.40709554,10.1370213 L8.40709554,10.6954529 L2.95274089,10.6954529 L2.95274089,10.1370213 Z M2.95274089,12.6180946 L8.40709554,12.6180946 L8.40709554,13.1774968 L2.95274089,13.1774968 L2.95274089,12.6180946 Z M2.95274089,15.1020798 L10.0335628,15.1020798 L10.0335628,15.6598643 L2.95274089,15.6598643 L2.95274089,15.1020798 Z"/></g></g></g></g></g></g></g></g></svg>