<svg xmlns="http://www.w3.org/2000/svg" xmlns:xlink="http://www.w3.org/1999/xlink" width="52" height="45" version="1.1" viewBox="0 0 52 45"><title>Polygon 2</title><desc>Created with Sketch.</desc><defs><polyline id="path-1" points=".554 22.518 13.286 .34 38.75 .34 51.482 22.518 38.75 44.697 13.287 44.697 .554 22.518"/></defs><g id="Page-1" fill="none" fill-rule="evenodd" stroke="none" stroke-width="1"><g id="Artboard" transform="translate(-168.000000, -104.000000)"><g id="Polygon-2" transform="translate(168.000000, 104.000000)"><mask id="mask-2" fill="#fff"><use xlink:href="#path-1"/></mask><use id="Mask" fill="#39B694" xlink:href="#path-1"/><path id="Shape" fill="#FFF" d="M29.3776426,15.6664866 C13.4116973,9.93344411 11.2261148,6.26635416 11.0003472,5 C10.9804265,8.08582853 11.7525898,24.5144691 30.4419757,24.5144691 C30.4419757,24.5144691 23.3891087,27.917614 17.1340174,22.6086304 C17.1340174,22.6086304 20.1951608,36.4938884 36.6961185,36.4938884 C36.6961185,36.4938884 30.9741422,39.6253251 24.8528039,36.4938884 C24.8528039,36.4938884 24.3206374,43.9134623 45.812198,43.096397 C45.812198,43.096397 50.1084232,42.955691 51.0883306,37.3323022 C51.472515,35.1256437 51.0797932,32.8413542 50.051507,30.8617661 C48.0822061,27.0724075 42.8686814,20.5096847 29.3776426,15.6664866 L29.3776426,15.6664866 Z" mask="url(#mask-2)"/></g></g></g></svg>