<svg xmlns="http://www.w3.org/2000/svg" xmlns:xlink="http://www.w3.org/1999/xlink" width="52" height="45" version="1.1" viewBox="0 0 52 45"><title>Polygon 2</title><desc>Created with Sketch.</desc><defs><polyline id="path-1" points=".554 22.518 13.286 .34 38.75 .34 51.482 22.518 38.75 44.697 13.287 44.697 .554 22.518"/></defs><g id="Page-1" fill="none" fill-rule="evenodd" stroke="none" stroke-width="1"><g id="Artboard" transform="translate(-168.000000, -172.000000)"><g id="Polygon-2" transform="translate(168.000000, 172.000000)"><mask id="mask-2" fill="#fff"><use xlink:href="#path-1"/></mask><use id="Mask" fill="#33006A" fill-opacity=".9" xlink:href="#path-1"/><g id="Group-87" mask="url(#mask-2)"><g transform="translate(-14.147624, 7.328225)"><path id="Fill-234" fill="#FFF" d="M46.4798543,0.0763839392 L46.4798543,1.0799631 L49.6959503,1.0799631 L41.6126874,9.17934875 L40.55584,5.23177011 L37.4369254,15.6037608 L33.1371559,4.19457104 L26.9145113,24.6736075 L20.070817,12.3376124 L16.2144375,19.9808713 L14.1230134,17.1492727 L10.1532557,23.1230777 L3.49785029,16.0428267 L0.355146494,19.7179336 C0.435118663,20.1334153 0.524707739,20.5448828 0.625938333,20.9528377 L3.53328099,17.5532133 L10.2904231,24.7408473 L14.1665426,18.9075434 L16.3774188,21.9007182 L20.1133338,14.496813 L27.18834,27.250297 L33.239905,7.33527204 L37.544736,18.7575083 L40.499657,8.93297007 L41.0878068,11.1323138 L50.4025399,1.79852579 L50.4025399,4.96883237 L51.4148458,4.96883237 L51.4148458,0.0763839392 L46.4798543,0.0763839392"/><g id="Group-132" fill="none" stroke-width="1" transform="translate(17.992043, 7.826891)"><polygon id="Fill-244" fill="#FFF" points=".639 30.218 7.492 30.218 7.492 17.847 .639 17.847"/><polygon id="Fill-245" fill="#FFF" points="11.234 30.032 18.087 30.032 18.087 9.56 11.234 9.56"/><polygon id="Fill-246" fill="#FFF" points="21.83 30.218 28.682 30.218 28.682 .186 21.83 .186"/><polygon id="Fill-247" fill="#FFF" points="32.424 30.032 39.277 30.032 39.277 19.796 32.424 19.796"/></g></g></g></g></g></g></svg>